<svg width="322" height="76" viewBox="0 0 322 76" fill="none" xmlns="http://www.w3.org/2000/svg">
<path d="M24.5058 -2.20676e-06C29.7002 -2.20676e-06 31.3323 3.70958 32.7017 7.41335C33.2769 8.98615 46.7751 45.7913 47.181 46.896C47.289 47.2042 47.216 47.71 46.7401 47.8932C46.2612 48.0734 39.2479 50.7888 38.8596 50.9341C38.4712 51.0824 38.0362 50.8673 37.896 50.4806C37.75 50.0998 34.839 42.0759 34.512 41.1805H14.5055C14.1902 42.0759 11.2441 50.1172 11.1127 50.4806C10.9784 50.8498 10.5609 51.0998 10.1463 50.9341C9.73168 50.7713 2.69205 48.056 2.2716 47.8932C1.86867 47.7362 1.68472 47.2798 1.82487 46.896C2.32124 45.518 15.6151 9.30303 16.2925 7.41335C17.6122 3.76482 19.2998 -2.20676e-06 24.5058 -2.20676e-06ZM0.756226 65.8568C0.335776 65.8568 0 66.2056 0 66.6301V75.2325C0 75.657 0.335776 76 0.756226 76H48.235C48.6642 76 49 75.657 49 75.2325V66.6301C49 66.2056 48.6642 65.8568 48.235 65.8568H0.756226ZM24.4591 12.0184L17.6969 32.2379H31.3323L24.5467 12.0184H24.4591Z" fill="#EF3124"/>
<path d="M103.109 39.0176C102.945 43.5221 102.376 46.2219 99.8943 46.2219V49.9934H100.821C107.057 49.9934 108.537 46.7652 108.761 39.5731L109.03 31.6153H114.787V49.9784H120.888V26.5449L120.551 26.505C114.941 25.8402 109.272 25.8481 103.664 26.5285L103.528 26.5449L103.109 39.0176ZM76.6277 43.1317H89.4871L91.6254 49.9784H98.7579L89.1432 21.21C87.4723 15.6092 87.1395 16.2251 83.4611 16.2251C79.7827 16.2251 79.7459 15.6092 77.6744 21.21L67.5962 49.9784H74.2951L76.6277 43.1317ZM83.1471 23.7325H83.3116L87.618 37.366H78.5566L83.1471 23.7325ZM165.014 25.5043V16.6455H158.928V25.5043C155.732 25.6101 152.709 26.9852 150.522 29.3273C148.336 31.6696 147.164 34.7876 147.265 37.9966C147.156 41.2122 148.324 44.3394 150.511 46.6906C152.698 49.0419 155.726 50.4244 158.928 50.534V59.5429H165.029V50.534C166.615 50.4816 168.175 50.1157 169.621 49.4568C171.066 48.7981 172.367 47.8595 173.451 46.695C174.534 45.5303 175.378 44.1626 175.934 42.67C176.49 41.1773 176.748 39.5892 176.692 37.9966C176.756 36.4029 176.503 34.8124 175.949 33.318C175.394 31.8234 174.548 30.4548 173.461 29.2919C172.374 28.1292 171.067 27.1952 169.617 26.5449C168.167 25.8946 166.602 25.5409 165.014 25.5043ZM158.943 44.7533C157.328 44.5752 155.848 43.7669 154.822 42.503C153.795 41.239 153.304 39.6206 153.455 37.9966C153.324 36.3766 153.822 34.7684 154.845 33.509C155.868 32.2494 157.336 31.4363 158.943 31.2399V44.7533ZM165.044 44.7533V31.2399C166.65 31.4363 168.119 32.2494 169.142 33.509C170.165 34.7684 170.663 36.3766 170.531 37.9966C170.675 39.6189 170.181 41.2332 169.156 42.4955C168.131 43.7576 166.655 44.5678 165.044 44.7533ZM199.555 42.6362V34.5732C199.555 28.6874 195.832 25.0088 189.581 25.0088C186.461 25.0088 185.036 25.5043 181.825 26.5449L184.098 30.8245C185.825 30.5643 186.695 30.5643 189.566 30.5643C190.103 30.4949 190.648 30.5516 191.157 30.7303C191.669 30.909 192.131 31.2043 192.508 31.5934C192.884 31.9823 193.167 32.454 193.332 32.9711C193.496 33.4884 193.538 34.0369 193.454 34.5732H187.473C182.06 34.5732 178.845 37.441 178.845 42.1857C178.803 43.318 178.998 44.4465 179.418 45.4983C179.837 46.5501 180.472 47.5016 181.281 48.2914C182.09 49.0811 183.056 49.6915 184.114 50.0831C185.173 50.4745 186.302 50.6383 187.428 50.564C188.699 50.6311 189.967 50.3826 191.12 49.8406C192.273 49.2984 193.275 48.4795 194.037 47.4559C194.534 48.299 195.257 48.9834 196.126 49.4298C196.993 49.8763 197.278 49.8406 197.278 49.8406L201.641 46.6906C200.609 46.6906 199.555 43.9575 199.555 42.6362ZM193.454 41.1347C193.48 41.7261 193.379 42.3162 193.16 42.8659C192.941 43.4156 192.609 43.9126 192.186 44.324C191.761 44.7354 191.256 45.0519 190.701 45.2528C190.147 45.4536 189.556 45.534 188.968 45.489C186.77 45.489 185.036 44.6932 185.036 42.3058C185.036 39.9185 186.965 39.5731 188.594 39.5731H193.454V41.1347ZM136.08 33.327H131.699V26.0598H125.598V45.6052C125.598 48.0204 127.552 49.9784 129.961 49.9784H136.185C142.809 49.9784 145.157 45.6541 145.157 41.5701C145.186 36.2999 141.897 33.327 136.08 33.327ZM135.632 44.7533H131.699V38.7473H135.632C137.74 38.7473 139.011 39.7083 139.011 41.7503C139.011 43.7923 137.8 44.7533 135.632 44.7533Z" fill="#EF3124"/>
<path d="M244.077 30.4498C240.287 28.6904 235.906 29.6446 231.807 30.4212L231.194 30.5374V22.4635H246.917V17.6299L241.36 17.0178C237.526 16.5955 233.657 16.6063 229.825 17.0502L224.822 17.6299V48.186C228.541 49.3202 232.406 49.8926 236.291 49.8849L237.968 49.8815C245.249 49.8815 249.433 46.1996 249.433 39.4696C249.433 35.184 247.52 32.048 244.077 30.4498ZM237.656 43.8305H231.194V35.5765L237.656 35.1388C241.021 35.1388 242.912 36.6478 242.912 39.4847C242.912 42.3215 241.021 43.8305 237.656 43.8305ZM292.015 34.7918H283.633V25.8436H277.558V49.8966H283.633V40.4202H292.015V49.8815H298.09V25.8436H292.015V34.7918Z" fill="#EF3124"/>
<path d="M272.872 42.4872V34.3841C272.872 28.4689 269.164 24.7719 262.941 24.7719C259.834 24.7719 258.414 25.2699 255.218 26.3157L257.48 30.6166C259.2 30.3551 260.067 30.3551 262.926 30.3551C263.46 30.2854 264.002 30.3424 264.51 30.522C265.019 30.7016 265.479 30.9984 265.854 31.3894C266.23 31.7802 266.511 32.2543 266.675 32.774C266.839 33.2938 266.88 33.8451 266.797 34.3841H260.841C255.452 34.3841 252.25 37.2662 252.25 42.0346C252.208 43.1725 252.403 44.3066 252.82 45.3636C253.238 46.4207 253.871 47.3769 254.676 48.1706C255.482 48.9644 256.443 49.5778 257.497 49.9713C258.551 50.3647 259.676 50.5293 260.797 50.4546C262.062 50.5221 263.325 50.2723 264.473 49.7276C265.621 49.1827 266.618 48.3597 267.378 47.331C267.872 48.1783 268.593 48.8661 269.458 49.3147C270.321 49.7635 270.604 49.7276 270.604 49.7276L274.949 46.5619C273.921 46.5619 272.872 43.8151 272.872 42.4872ZM266.797 40.9783C266.822 41.5727 266.723 42.1657 266.504 42.7181C266.286 43.2706 265.956 43.77 265.534 44.1835C265.112 44.5969 264.608 44.915 264.056 45.1169C263.504 45.3187 262.915 45.3996 262.33 45.3543C260.142 45.3543 258.414 44.5545 258.414 42.1553C258.414 39.756 260.335 39.4089 261.958 39.4089H266.797V40.9783Z" fill="#EF3124"/>
<path d="M302.75 25.885H308.934V34.8282H310.662C311.056 34.6062 312.026 33.6675 312.754 31.6886C313.663 29.2149 315.028 25.885 317.847 25.885H321.485L321.121 29.976C320.393 30.0712 318.829 30.7372 318.392 32.64C317.853 34.9935 315.71 37.0675 315.048 37.1109C315.553 37.1097 317.02 38.2009 319.029 42.6297L321.576 48.243V49.8604H315.482C314.36 46.8159 311.826 40.6318 310.662 40.2512H308.934V49.8604H302.75V25.885Z" fill="#EF3124"/>
<ellipse cx="211.971" cy="37.8742" rx="3.77946" ry="4.03142" fill="#EF3124"/>
</svg>
