<svg width="16" height="16" viewBox="0 0 16 16" fill="none" xmlns="http://www.w3.org/2000/svg">
<path fill-rule="evenodd" clip-rule="evenodd" d="M12.4997 2H14.333C15.0694 2 15.6663 2.59695 15.6663 3.33333V14.6667C15.6663 15.403 15.0694 16 14.333 16H1.66634C0.929962 16 0.333008 15.403 0.333008 14.6667V3.33333C0.333008 2.59695 0.929962 2 1.66634 2H2.66634C2.85044 2 2.99967 2.14924 2.99967 2.33333V3.83333C2.99967 4.10948 3.22353 4.33333 3.49967 4.33333C3.77582 4.33333 3.99967 4.10948 3.99967 3.83333V0.666667C3.99967 0.298477 4.29815 0 4.66634 0C5.03453 0 5.33301 0.298477 5.33301 0.666667V1.834C5.33337 1.92579 5.40789 2 5.49967 2H9.66634C9.85044 2 9.99967 2.14924 9.99967 2.33333V3.83333C9.99967 4.10948 10.2235 4.33333 10.4997 4.33333C10.7758 4.33333 10.9997 4.10948 10.9997 3.83333V0.666667C10.9997 0.298477 11.2982 0 11.6663 0C12.0345 0 12.333 0.298477 12.333 0.666667V1.83333C12.333 1.92538 12.4076 2 12.4997 2ZM1.99967 14.6667H13.9997C14.1838 14.6667 14.333 14.5174 14.333 14.3333V6.33333C14.333 6.14924 14.1838 6 13.9997 6H1.99967C1.81558 6 1.66634 6.14924 1.66634 6.33333V14.3333C1.66634 14.5174 1.81558 14.6667 1.99967 14.6667Z" fill="black"/>
</svg>
