<svg width="329" height="74" viewBox="0 0 329 74" fill="none" xmlns="http://www.w3.org/2000/svg">
<path d="M1.78634 36.7787C1.78634 56.0068 16.988 71.6728 35.6766 71.6728C54.3306 71.6728 69.515 56.0068 69.515 36.7787C69.515 17.5161 54.3306 1.85017 35.6766 1.85017C16.9708 1.83289 1.78634 17.4989 1.78634 36.7787ZM0 36.7787C0 16.4959 15.9917 0 35.6766 0C55.3097 0 71.3016 16.4788 71.3016 36.7787C71.3016 57.027 55.3097 73.5055 35.6766 73.5055C15.9917 73.5055 0 57.027 0 36.7787Z" fill="#0D356C"/>
<path d="M25.0267 13.5565C23.7899 14.1099 22.6218 14.8015 21.5398 15.597C30.0251 11.7063 40.3828 11.9484 45.9482 14.5076C47.7003 15.3376 48.8683 15.8562 49.4008 16.8592C43.6294 15.2683 41.1559 14.9744 36.3292 15.0955C29.4584 15.2164 20.3203 18.0177 16.8332 20.1618L15.2873 22.1504C20.3203 19.0897 29.6988 17.0839 34.9034 16.9111C40.7093 16.8247 45.2268 17.3779 49.3665 18.9169C49.126 20.0063 48.5935 20.5423 47.7003 21.0955C31.1246 18.1214 21.3337 21.6315 12.4876 27.5798L11.8348 29.5511C21.7115 22.5653 33.8042 20.6287 45.4673 22.7209C41.2933 24.2252 36.2947 24.5711 32.1037 25.5567C28.5308 26.404 26.6241 26.6461 21.8661 28.2887C17.0394 29.9141 14.1881 31.5914 12.4015 33.7355C11.5428 34.7385 10.8902 35.9143 10.7355 37.1765C10.6667 37.9201 10.701 38.6118 10.9415 39.2687C11.1306 39.8566 11.5943 40.4445 12.0752 41.0324C11.5085 42.0354 11.0103 43.3322 11.8348 44.8538C12.1956 45.5629 13.1402 46.2717 14.0335 46.9462L13.7757 47.6896C13.6556 48.5715 13.5353 49.6263 14.1022 50.4908C15.0641 52.0817 16.2492 53.1364 18.1216 54.1394C18.4136 55.4362 18.843 56.4911 19.8221 57.4074C21.9004 59.3787 26.521 63.1482 34.7661 63.7361C40.9498 64.151 45.3642 62.2318 47.0304 61.3845L49.0572 60.2951C45.6047 61.713 39.7988 62.5603 35.0408 62.1281C28.1357 61.5402 21.9692 56.8888 21.1963 55.5399C21.4368 55.713 21.7631 55.8339 22.0378 55.955C30.1282 59.9838 40.5547 62.1626 53.9355 56.5429L55.0348 55.4535C42.8735 59.344 32.2411 59.223 20.8182 53.0674C20.9386 52.4795 21.1963 51.9606 21.7115 51.5629C24.6316 52.8944 27.4486 54.0011 30.8496 54.6926C34.8346 55.4535 39.3866 55.6263 43.114 55.4535C46.893 55.2805 54.3649 53.3613 57.9033 51.4246C58.2298 51.1306 58.3842 50.6291 58.7107 50.3007C51.8056 52.8944 43.5949 54.1047 38.648 53.7243C33.8042 53.344 29.5099 52.7561 23.8244 50.076C24.9236 49.6263 26.0573 49.246 27.1911 48.9001C30.9356 50.076 34.7488 50.7848 39.2493 50.9923C43.7152 51.1999 54.1587 49.4881 60.7375 45.3899C60.9437 44.802 61.1499 44.1622 61.1499 44.1622C61.1499 44.1622 52.0116 49.1941 41.6539 49.1941C36.8101 49.1941 33.8557 48.4851 31.657 47.9317C36.5351 47.0153 42.6673 46.2546 49.5726 44.4561C53.0595 43.5397 57.3708 41.4302 59.3291 39.6838C60.9953 38.1276 62.3007 36.1219 61.854 34.0642C61.7682 33.5108 61.0468 32.2138 60.1363 31.7644C60.9953 30.6403 60.9094 29.672 60.7891 28.8421C60.7033 28.2023 60.4113 27.4934 60.0677 26.8708C59.5009 26.1101 58.9682 25.5222 57.869 24.8478C58.0409 23.966 57.9206 23.0668 57.5427 22.2542C56.6837 20.7497 55.1551 19.4529 52.5098 18.0696C52.3896 17.5162 52.0631 16.8073 51.4964 16.0983C48.1641 12.7093 42.7189 11.0666 38.1328 10.9801H37.3769C32.0176 11.032 27.7063 12.2769 25.0267 13.5565ZM51.0327 21.9428C51.4448 21.4761 52.0461 20.767 52.2007 20.1791C53.3515 20.94 54.6397 22.064 54.7943 23.2398C53.592 22.7728 52.2866 22.2713 51.0327 21.9428ZM52.0461 27.0438C50.1051 26.4904 48.3874 25.8335 46.1201 25.4184C47.5113 24.865 48.4389 24.2945 49.2461 23.6201C51.067 24.1216 52.7675 24.7441 54.1587 25.3839C53.9183 25.7469 52.527 27.0783 52.0976 27.0783C52.0804 27.0612 52.0631 27.0612 52.0461 27.0438ZM55.5845 28.5136C56.117 28.0985 56.5979 27.6317 57.0445 27.0957C58.1438 28.064 58.4703 28.7211 57.9378 29.7758C57.1992 29.2224 56.4262 28.9285 55.5845 28.5136ZM13.8616 38.9057C10.8557 34.6347 21.2821 31.574 23.2746 30.9516C28.3419 29.3954 34.2851 28.237 39.6444 27.5625C43.3374 27.0957 45.2954 27.5279 48.7825 28.4791C39.7988 30.9516 30.9356 31.7471 22.5017 34.3062C15.6997 36.3292 13.8961 38.9057 13.8616 38.9057ZM16.0948 40.9634C19.2724 38.1967 25.731 36.6405 28.0842 36.1045C35.5905 34.4272 42.5815 33.3725 45.4673 32.6289C48.9541 31.7471 51.3933 30.9171 53.0938 30.0698C53.1796 29.9488 55.9453 31.332 56.2201 31.6607C55.2925 32.4559 53.9871 33.1304 52.5613 33.6317C48.3015 35.2226 40.5374 36.8999 36.4323 37.5397C32.2926 38.2486 28.8228 38.7846 24.2537 40.0468C21.6084 40.7732 19.8221 41.6032 18.5167 42.4851C17.5548 41.8798 16.9878 41.707 16.0948 40.9634ZM21.9863 44.3178C23.3262 43.7299 24.7862 43.2631 26.1947 42.8999C33.3403 41.0843 39.6444 40.7559 48.3358 38.335C52.5098 37.1939 55.5672 35.9833 57.4739 34.4791C57.7489 34.2196 58.0409 34.0123 58.3329 33.7702C60.8579 37.799 51.3933 40.8942 44.9176 42.3294C41.5338 43.0211 38.1498 43.678 34.7661 44.3007C30.5406 45.0095 29.1663 45.3899 26.229 46.2717C24.7862 45.6493 23.3262 45.0269 21.9863 44.3178ZM14.377 43.0556C15.0296 43.4878 15.5107 43.8163 16.2837 44.2314C15.9917 44.4908 15.6309 44.7329 15.3561 45.0269C14.7206 44.6465 14.0677 43.8163 14.377 43.0556ZM17.7608 46.9115C18.1731 46.5312 18.6883 46.168 19.2553 45.7876C20.4749 46.3755 21.7288 46.9115 22.9138 47.4649C22.1239 47.7589 21.368 48.1392 20.6466 48.6062C19.6675 48.0354 18.7056 47.4823 17.7608 46.9115ZM16.6958 48.952C17.3829 49.4188 18.07 49.7992 18.7742 50.1624C18.4822 50.5773 18.2762 50.9059 18.1731 51.3382C17.1425 50.4737 16.6615 49.7646 16.6958 48.952Z" fill="#0D356C"/>
<path d="M308.008 21.4376H314.917L314.882 32.5405H316.378L320.312 21.4376H327.788L322.426 36.116L328.561 52.3685H320.466L316.481 39.931H314.847L314.882 52.3685H307.973V21.4376H308.008ZM284.722 21.4376H291.597V32.5919H296.511V21.4376H303.367V52.3685H296.511V39.9654H291.597V52.3685H284.722V21.4376ZM260.783 52.4198H267.931L268.792 47.065H273.706L274.565 52.4198H281.714L275.699 21.4889H266.832L260.783 52.4198ZM271.265 30.8639L272.572 40.2732H269.926L271.265 30.8639ZM241.605 52.3685H249.973C251.795 52.3685 259.409 51.5815 259.442 42.2063C259.442 34.3369 253.547 32.9682 249.732 32.9682H248.479V28.8624H257.792V21.4376H241.621L241.605 52.3685ZM248.461 46.1583V39.1612H249.475C250.334 39.1612 252.516 39.1953 252.516 42.3945C252.516 45.628 250.318 46.1583 249.475 46.1583H248.461ZM214.331 21.4376H220.312L225.588 28.7425L230.915 21.4376H236.845V52.3685H229.816V33.5157L225.588 38.9045L221.36 33.5157V52.3685H214.331V21.4376ZM199.81 52.7448C208.145 52.7448 210.946 44.7725 210.946 36.8687C210.946 28.9649 208.145 20.9927 199.81 20.9927C191.475 20.9927 188.673 28.9479 188.673 36.8687C188.673 44.7897 191.492 52.7448 199.81 52.7448ZM199.81 45.2345C197.335 45.2345 196.063 42.292 196.063 36.8687C196.063 31.4455 197.318 28.4859 199.81 28.4859C202.302 28.4859 203.539 31.4285 203.539 36.8687C203.539 42.309 202.302 45.2515 199.81 45.2345ZM168.327 52.3685H175.356V42.1722H177.71C184.652 42.1722 186.818 35.791 186.818 31.7194C186.818 27.7504 184.344 21.4376 177.71 21.4376H168.327V52.3685ZM175.356 28.2464H177.022C178.604 28.2464 179.617 29.2387 179.617 31.8049C179.617 35.1237 177.899 35.3632 177.022 35.3632H175.356V28.2464ZM145.109 21.4376H164.288V52.3685H157.259V28.9137H152.138V52.3685H145.109V21.4376ZM130.691 33.43C131.825 33.43 133.905 32.6774 133.905 30.402C133.905 27.716 131.516 27.545 130.811 27.545C130.004 27.545 128.457 27.6819 126.945 28.4175L126.859 21.6942C129.248 21.0782 130.966 20.9072 132.994 20.9072C138.768 20.9072 141.329 25.013 141.329 29.0334C141.329 32.934 139.129 35.2949 136.981 36.2015V36.4924C139.06 37.1595 141.81 39.1953 141.81 43.9172C141.81 49.768 137.823 53.0015 132.702 53.0015C129.986 52.9672 128.182 52.5908 126.034 51.3933L126.154 44.9607C128.148 45.8332 129.488 45.9189 130.828 45.9189C133.097 45.9189 133.99 44.208 133.99 42.9762C133.99 41.2312 132.891 40.0678 130.502 40.0678H127.649V33.43H130.691ZM103.057 52.3685H110.172L111.065 47.0137H115.98L116.84 52.3685H123.955L117.94 21.4376H109.089C109.072 21.4376 103.057 52.3685 103.057 52.3685ZM113.489 30.7784L114.829 40.2218H112.148L113.489 30.7784ZM89.4465 21.4376H103.865V29.1532H96.5957V52.3685H89.4465V21.4376Z" fill="#0D356C"/>
</svg>
