<svg width="301" height="68" viewBox="0 0 301 68" fill="none" xmlns="http://www.w3.org/2000/svg">
<path d="M69.614 38.195C66.936 38.195 64.518 37.597 62.36 36.401C60.228 35.205 58.538 33.554 57.29 31.448C56.068 29.342 55.457 26.976 55.457 24.35C55.457 21.724 56.068 19.358 57.29 17.252C58.538 15.146 60.228 13.495 62.36 12.299C64.518 11.103 66.936 10.505 69.614 10.505C71.59 10.505 73.41 10.83 75.074 11.48C76.738 12.104 78.155 13.04 79.325 14.288L78.077 15.575C75.893 13.417 73.098 12.338 69.692 12.338C67.404 12.338 65.324 12.858 63.452 13.898C61.58 14.938 60.111 16.381 59.045 18.227C57.979 20.047 57.446 22.088 57.446 24.35C57.446 26.612 57.979 28.666 59.045 30.512C60.111 32.332 61.58 33.762 63.452 34.802C65.324 35.842 67.404 36.362 69.692 36.362C73.072 36.362 75.867 35.27 78.077 33.086L79.325 34.373C78.155 35.621 76.725 36.57 75.035 37.22C73.371 37.87 71.564 38.195 69.614 38.195ZM101.948 12.494H92.12V38H90.131V12.494H80.303V10.7H101.948V12.494ZM116.464 10.7C119.896 10.7 122.587 11.519 124.537 13.157C126.487 14.769 127.462 17.018 127.462 19.904C127.462 22.764 126.487 25.013 124.537 26.651C122.587 28.263 119.896 29.069 116.464 29.069H108.664V38H106.675V10.7H116.464ZM116.464 27.275C119.376 27.275 121.599 26.638 123.133 25.364C124.667 24.09 125.434 22.27 125.434 19.904C125.434 17.538 124.667 15.718 123.133 14.444C121.599 13.144 119.376 12.494 116.464 12.494H108.664V27.275H116.464ZM145.326 38.195C142.648 38.195 140.23 37.597 138.072 36.401C135.914 35.179 134.211 33.515 132.963 31.409C131.741 29.303 131.13 26.95 131.13 24.35C131.13 21.75 131.741 19.397 132.963 17.291C134.211 15.185 135.914 13.534 138.072 12.338C140.23 11.116 142.648 10.505 145.326 10.505C148.004 10.505 150.422 11.103 152.58 12.299C154.738 13.495 156.428 15.146 157.65 17.252C158.898 19.358 159.522 21.724 159.522 24.35C159.522 26.976 158.898 29.342 157.65 31.448C156.428 33.554 154.738 35.205 152.58 36.401C150.422 37.597 148.004 38.195 145.326 38.195ZM145.326 36.362C147.614 36.362 149.681 35.842 151.527 34.802C153.373 33.762 154.829 32.332 155.895 30.512C156.961 28.666 157.494 26.612 157.494 24.35C157.494 22.088 156.961 20.047 155.895 18.227C154.829 16.381 153.373 14.938 151.527 13.898C149.681 12.858 147.614 12.338 145.326 12.338C143.038 12.338 140.958 12.858 139.086 13.898C137.24 14.938 135.784 16.381 134.718 18.227C133.652 20.047 133.119 22.088 133.119 24.35C133.119 26.612 133.652 28.666 134.718 30.512C135.784 32.332 137.24 33.762 139.086 34.802C140.958 35.842 143.038 36.362 145.326 36.362ZM166.29 10.7H168.279V34.646L186.882 10.7H188.637V38H186.648V14.093L168.045 38H166.29V10.7ZM177.366 8.633C175.546 8.633 174.077 8.217 172.959 7.385C171.867 6.527 171.308 5.357 171.282 3.875H172.881C172.907 4.967 173.323 5.825 174.129 6.449C174.961 7.073 176.04 7.385 177.366 7.385C178.666 7.385 179.719 7.073 180.525 6.449C181.357 5.825 181.786 4.967 181.812 3.875H183.411C183.385 5.357 182.813 6.527 181.695 7.385C180.603 8.217 179.16 8.633 177.366 8.633ZM206.428 25.052H199.876V38H197.887V10.7H199.876V23.258H206.467L216.256 10.7H218.479L208.027 23.999L219.181 38H216.841L206.428 25.052ZM240.478 30.317H224.644L221.173 38H219.028L231.586 10.7H233.575L246.133 38H243.988L240.478 30.317ZM239.737 28.64L232.561 12.884L225.424 28.64H239.737ZM264.55 22.127C268.528 22.127 271.414 22.829 273.208 24.233C275.002 25.611 275.899 27.574 275.899 30.122C275.899 31.682 275.535 33.073 274.807 34.295C274.105 35.491 273.039 36.44 271.609 37.142C270.179 37.844 268.424 38.195 266.344 38.195C264.368 38.195 262.509 37.857 260.767 37.181C259.051 36.505 257.712 35.621 256.75 34.529L257.764 33.008C258.622 33.996 259.805 34.802 261.313 35.426C262.847 36.05 264.511 36.362 266.305 36.362C268.749 36.362 270.621 35.803 271.921 34.685C273.247 33.567 273.91 32.072 273.91 30.2C273.91 28.146 273.156 26.586 271.648 25.52C270.166 24.454 267.657 23.921 264.121 23.921H258.583L260.026 10.7H274.495V12.494H261.703L260.65 22.127H264.55ZM289.963 21.854C291.757 21.854 293.343 22.192 294.721 22.868C296.125 23.518 297.204 24.467 297.958 25.715C298.712 26.937 299.089 28.354 299.089 29.966C299.089 31.604 298.699 33.047 297.919 34.295C297.139 35.543 296.06 36.505 294.682 37.181C293.304 37.857 291.744 38.195 290.002 38.195C286.466 38.195 283.749 36.999 281.851 34.607C279.979 32.189 279.043 28.822 279.043 24.506C279.043 21.49 279.537 18.942 280.525 16.862C281.539 14.756 282.956 13.17 284.776 12.104C286.596 11.038 288.728 10.505 291.172 10.505C293.746 10.505 295.813 10.973 297.373 11.909L296.554 13.508C295.254 12.676 293.46 12.26 291.172 12.26C288.026 12.26 285.543 13.287 283.723 15.341C281.929 17.369 281.032 20.32 281.032 24.194C281.032 25.39 281.11 26.482 281.266 27.47C281.812 25.702 282.865 24.324 284.425 23.336C286.011 22.348 287.857 21.854 289.963 21.854ZM289.924 36.479C292.056 36.479 293.785 35.894 295.111 34.724C296.437 33.528 297.1 31.955 297.1 30.005C297.1 28.055 296.437 26.495 295.111 25.325C293.785 24.155 291.978 23.57 289.69 23.57C288.234 23.57 286.921 23.856 285.751 24.428C284.607 25 283.71 25.78 283.06 26.768C282.436 27.756 282.124 28.861 282.124 30.083C282.124 31.175 282.423 32.215 283.021 33.203C283.645 34.191 284.542 34.984 285.712 35.582C286.882 36.18 288.286 36.479 289.924 36.479Z" fill="white"/>
<path d="M69.634 61.02V65.772H67.474V63H56.782V50.4H59.086V61.02H65.44V50.4H67.762V61.02H69.634ZM81.2257 61.038V63H71.7757V50.4H80.9737V52.362H74.1157V55.638H80.1997V57.564H74.1157V61.038H81.2257ZM95.0303 50.4V63H92.6903V57.6H86.1743V63H83.8343V50.4H86.1743V55.602H92.6903V50.4H95.0303ZM107.709 52.38H103.533V63H101.211V52.38H97.0528V50.4H107.709V52.38ZM114.911 50.4C116.003 50.4 116.951 50.58 117.755 50.94C118.571 51.3 119.195 51.816 119.627 52.488C120.059 53.16 120.275 53.958 120.275 54.882C120.275 55.794 120.059 56.592 119.627 57.276C119.195 57.948 118.571 58.464 117.755 58.824C116.951 59.184 116.003 59.364 114.911 59.364H112.067V63H109.727V50.4H114.911ZM114.803 57.384C115.823 57.384 116.597 57.168 117.125 56.736C117.653 56.304 117.917 55.686 117.917 54.882C117.917 54.078 117.653 53.46 117.125 53.028C116.597 52.596 115.823 52.38 114.803 52.38H112.067V57.384H114.803ZM138.835 50.4V63H136.495V57.6H129.979V63H127.639V50.4H129.979V55.602H136.495V50.4H138.835ZM151.819 61.038V63H142.369V50.4H151.567V52.362H144.709V55.638H150.793V57.564H144.709V61.038H151.819ZM166.92 61.02V65.682H164.76V63H155.094V65.682H152.916L152.934 61.02H153.474C154.266 60.984 154.818 60.402 155.13 59.274C155.454 58.134 155.652 56.508 155.724 54.396L155.868 50.4H165.102V61.02H166.92ZM157.776 54.612C157.716 56.244 157.584 57.606 157.38 58.698C157.176 59.778 156.852 60.552 156.408 61.02H162.798V52.38H157.866L157.776 54.612ZM177.421 56.448C178.225 56.664 178.837 57.036 179.257 57.564C179.677 58.08 179.887 58.728 179.887 59.508C179.887 60.612 179.479 61.47 178.663 62.082C177.847 62.694 176.665 63 175.117 63H169.141V50.4H174.775C176.191 50.4 177.295 50.682 178.087 51.246C178.879 51.81 179.275 52.608 179.275 53.64C179.275 54.3 179.113 54.87 178.789 55.35C178.477 55.83 178.021 56.196 177.421 56.448ZM171.445 55.782H174.577C175.333 55.782 175.909 55.632 176.305 55.332C176.701 55.032 176.899 54.588 176.899 54C176.899 53.412 176.701 52.968 176.305 52.668C175.909 52.356 175.333 52.2 174.577 52.2H171.445V55.782ZM175.045 61.2C176.701 61.2 177.529 60.576 177.529 59.328C177.529 58.104 176.701 57.492 175.045 57.492H171.445V61.2H175.045ZM182.571 50.4H184.875V59.346L191.643 50.4H193.821V63H191.517V54.072L184.749 63H182.571V50.4ZM208.37 57.69H206.21V63H203.924V57.69H201.764L198.578 63H195.878L199.838 56.43L196.148 50.4H198.632L201.71 55.674H203.924V50.4H206.21V55.674H208.388L211.484 50.4H213.968L210.296 56.448L214.238 63H211.538L208.37 57.69ZM215.882 50.4H218.186V59.346L224.954 50.4H227.132V63H224.828V54.072L218.06 63H215.882V50.4ZM242.238 63L242.22 54.648L238.08 61.56H237.036L232.896 54.756V63H230.682V50.4H232.608L237.594 58.734L242.526 50.4H244.434L244.47 63H242.238ZM253.828 63.18C252.544 63.18 251.386 62.904 250.354 62.352C249.322 61.788 248.512 61.014 247.924 60.03C247.336 59.034 247.042 57.924 247.042 56.7C247.042 55.476 247.336 54.372 247.924 53.388C248.512 52.392 249.322 51.618 250.354 51.066C251.386 50.502 252.544 50.22 253.828 50.22C255.112 50.22 256.27 50.502 257.302 51.066C258.334 51.618 259.144 52.386 259.732 53.37C260.32 54.354 260.614 55.464 260.614 56.7C260.614 57.936 260.32 59.046 259.732 60.03C259.144 61.014 258.334 61.788 257.302 62.352C256.27 62.904 255.112 63.18 253.828 63.18ZM253.828 61.128C254.668 61.128 255.424 60.942 256.096 60.57C256.768 60.186 257.296 59.658 257.68 58.986C258.064 58.302 258.256 57.54 258.256 56.7C258.256 55.86 258.064 55.104 257.68 54.432C257.296 53.748 256.768 53.22 256.096 52.848C255.424 52.464 254.668 52.272 253.828 52.272C252.988 52.272 252.232 52.464 251.56 52.848C250.888 53.22 250.36 53.748 249.976 54.432C249.592 55.104 249.4 55.86 249.4 56.7C249.4 57.54 249.592 58.302 249.976 58.986C250.36 59.658 250.888 60.186 251.56 60.57C252.232 60.942 252.988 61.128 253.828 61.128ZM268.998 63.18C267.726 63.18 266.574 62.904 265.542 62.352C264.522 61.788 263.718 61.014 263.13 60.03C262.554 59.046 262.266 57.936 262.266 56.7C262.266 55.464 262.56 54.354 263.148 53.37C263.736 52.386 264.54 51.618 265.56 51.066C266.592 50.502 267.744 50.22 269.016 50.22C270.048 50.22 270.99 50.4 271.842 50.76C272.694 51.12 273.414 51.642 274.002 52.326L272.49 53.748C271.578 52.764 270.456 52.272 269.124 52.272C268.26 52.272 267.486 52.464 266.802 52.848C266.118 53.22 265.584 53.742 265.2 54.414C264.816 55.086 264.624 55.848 264.624 56.7C264.624 57.552 264.816 58.314 265.2 58.986C265.584 59.658 266.118 60.186 266.802 60.57C267.486 60.942 268.26 61.128 269.124 61.128C270.456 61.128 271.578 60.63 272.49 59.634L274.002 61.074C273.414 61.758 272.688 62.28 271.824 62.64C270.972 63 270.03 63.18 268.998 63.18ZM285.178 52.38H281.002V63H278.68V52.38H274.522V50.4H285.178V52.38ZM287.214 50.4H289.518V59.346L296.286 50.4H298.464V63H296.16V54.072L289.392 63H287.214V50.4Z" fill="#DE0101"/>
<path d="M0 32C0 26.4772 4.47715 22 10 22V22V63H0V32Z" fill="#DE0101"/>
<path d="M36 25C36 19.4772 31.5228 15 26 15V15V63H36V25Z" fill="#DE0101"/>
<path d="M13 11C13 5.47715 17.4772 1 23 1V1V63H13V11Z" fill="#DE0101"/>
</svg>
