<svg width="17" height="12" viewBox="0 0 17 12" fill="none" xmlns="http://www.w3.org/2000/svg">
<path d="M7.30819 1.93541H9.43983C10.4262 1.93621 11.2827 2.54396 11.5089 3.40366C11.5279 3.47533 11.5993 3.52599 11.6816 3.52616H14.9481C14.9952 3.52631 15.0404 3.50966 15.0738 3.47989C15.1072 3.45012 15.1259 3.40967 15.1259 3.36749V1.77616C15.1259 1.43863 14.9762 1.11494 14.7095 0.876333C14.4429 0.637724 14.0814 0.503752 13.7044 0.503906H3.0436C2.66665 0.503752 2.30507 0.637724 2.03847 0.876333C1.77186 1.11494 1.62207 1.43863 1.62207 1.77616V3.36749C1.62207 3.40967 1.64083 3.45012 1.6742 3.47989C1.70757 3.50966 1.75281 3.52631 1.79992 3.52616H5.06644C5.14887 3.52642 5.22053 3.47557 5.23909 3.40366C5.4653 2.54396 6.32177 1.93621 7.30819 1.93541Z" fill="black"/>
<path d="M1.26692 4.48096C1.07836 4.4808 0.897471 4.5478 0.76414 4.66719C0.630808 4.78657 0.55598 4.94854 0.556153 5.11737V8.45812C0.556152 8.76059 0.793907 9.02127 1.12489 9.08171C1.20748 9.09692 1.26679 9.16196 1.26692 9.23746V10.526C1.26692 10.8775 1.58514 11.1625 1.97768 11.1625C2.37023 11.1625 2.68845 10.8775 2.68845 10.526V9.25379C2.68827 9.21161 2.70687 9.1711 2.74012 9.14122C2.77337 9.11134 2.81854 9.09454 2.86565 9.09454H13.8822C13.9293 9.09454 13.9745 9.11134 14.0077 9.14122C14.041 9.1711 14.0595 9.21161 14.0594 9.25379V10.526C14.0594 10.8775 14.3776 11.1625 14.7701 11.1625C15.1627 11.1625 15.4809 10.8775 15.4809 10.526V9.23746C15.481 9.16196 15.5403 9.09692 15.6229 9.08171C15.9539 9.02127 16.1917 8.76059 16.1917 8.45812V5.11737C16.1918 4.94854 16.117 4.78657 15.9837 4.66719C15.8503 4.5478 15.6695 4.4808 15.4809 4.48096H1.26692Z" fill="black"/>
</svg>
