<svg width="247" height="62" viewBox="0 0 247 62" fill="none" xmlns="http://www.w3.org/2000/svg">
<path d="M30.2288 53.6188C42.6912 53.6188 52.7939 43.3582 52.7939 30.7011L59.952 25.0798C60.284 26.9022 60.4576 28.7811 60.4576 30.7011C60.4576 47.6569 46.9237 61.4022 30.2288 61.4022C13.5339 61.4022 0 47.6569 0 30.7011C0 13.7454 13.5339 0 30.2288 0C37.3042 0 43.8118 2.46882 48.9621 6.60454L43.1233 11.8913C39.4682 9.30193 35.0231 7.78338 30.2288 7.78338C17.7664 7.78338 7.66364 18.044 7.66364 30.7011C7.66364 43.3582 17.7664 53.6188 30.2288 53.6188Z" fill="url(#paint0_angular_28_126)"/>
<path d="M53.2198 12.9727L57.0516 19.0264L30.016 39.1335L18.7334 31.9987V23.3505L30.016 30.2691L53.2198 12.9727Z" fill="url(#paint1_linear_28_126)"/>
<path d="M164.296 10.4653H129.72V32.744H149.844C153.077 32.744 155.698 35.4038 155.698 38.6849C155.698 41.9661 153.077 44.6259 149.844 44.6259H129.72V51.3095H151.949C158.769 51.3095 164.296 45.6989 164.296 38.7778C164.296 31.8567 158.768 26.246 151.948 26.246H138.318V16.7776H155.698L164.296 10.4653Z" fill="#1BA136"/>
<path d="M203.081 10.4653H172.895V51.1239H203.081V44.4403H181.493V33.4866H200.154V27.1743H181.493V16.7776H194.482L203.081 10.4653Z" fill="#1BA136"/>
<path d="M220.461 51.1239H211.862V32.9296H229.334C233.729 32.9296 237.292 29.3139 237.292 24.8536C237.292 20.3933 233.729 16.7776 229.334 16.7776H220.461H211.862V10.094H231.895C239.927 10.094 246.439 16.7021 246.439 24.8536C246.439 33.0051 239.927 39.6132 231.895 39.6132H220.461V51.1239Z" fill="#1BA136"/>
<path d="M121.121 14.921L115.084 19.7481C111.572 17.6687 108.498 17.1489 107.4 17.1489C95.1064 16.8518 92.7647 26.0604 93.1306 30.7017C94.5942 46.7424 108.376 44.9353 115.084 42.0267L121.121 46.6681C118.926 49.2673 110.876 51.6808 105.937 51.6808C100.631 51.6808 84.7151 49.0817 84.7151 30.7017C84.7151 12.3218 99.3507 9.72266 106.852 9.72266C112.852 9.72266 119.048 13.1263 121.121 14.921Z" fill="#1BA136"/>
<path d="M129.72 32.744H138.501V44.6259H129.72V32.744Z" fill="#1BA136"/>
<path d="M211.862 16.7776H220.461V33.1153H211.862V16.7776Z" fill="#1BA136"/>
<defs>
<radialGradient id="paint0_angular_28_126" cx="0" cy="0" r="1" gradientUnits="userSpaceOnUse" gradientTransform="translate(30.2288 30.7011) rotate(90) scale(30.7011 30.2288)">
<stop offset="0.203225" stop-color="#DFFA16"/>
<stop offset="0.307936" stop-color="#8CFB6B"/>
<stop offset="0.369792" stop-color="#10E7EF"/>
<stop offset="0.494792" stop-color="#0DA9DA"/>
<stop offset="0.583333" stop-color="#0B86CE"/>
<stop offset="0.729406" stop-color="#219E39"/>
<stop offset="1" stop-color="#7EF629"/>
</radialGradient>
<linearGradient id="paint1_linear_28_126" x1="17.8819" y1="28.7556" x2="56.7218" y2="17.409" gradientUnits="userSpaceOnUse">
<stop stop-color="#219F36"/>
<stop offset="1" stop-color="#24A139"/>
</linearGradient>
</defs>
</svg>
