<svg width="19" height="16" viewBox="0 0 19 16" fill="none" xmlns="http://www.w3.org/2000/svg">
<path d="M5.35197 3C5.76317 3 6.09652 2.70152 6.09652 2.33333V0.666667C6.09652 0.298477 5.76317 0 5.35197 0C4.94077 0 4.60742 0.298477 4.60742 0.666667V2.33333C4.60742 2.70152 4.94077 3 5.35197 3Z" fill="black"/>
<path d="M3.4906 4.66667C3.4906 4.29848 3.15726 4 2.74606 4H0.884685C0.473482 4 0.140137 4.29848 0.140137 4.66667C0.140137 5.03486 0.473482 5.33333 0.884685 5.33333H2.74606C3.15726 5.33333 3.4906 5.03486 3.4906 4.66667Z" fill="black"/>
<path d="M2.74606 10.6665H0.884685C0.473482 10.6665 0.140137 10.965 0.140137 11.3332C0.140137 11.7014 0.473482 11.9998 0.884685 11.9998H2.74606C3.15726 11.9998 3.4906 11.7014 3.4906 11.3332C3.4906 10.965 3.15726 10.6665 2.74606 10.6665Z" fill="black"/>
<path d="M12.7973 0C12.3861 0 12.0527 0.298477 12.0527 0.666667V2.33333C12.0527 2.70152 12.3861 3 12.7973 3C13.2085 3 13.5418 2.70152 13.5418 2.33333V0.666667C13.5418 0.298477 13.2085 0 12.7973 0Z" fill="black"/>
<path d="M5.35197 13C4.94077 13 4.60742 13.2985 4.60742 13.6667V15.3333C4.60742 15.7015 4.94077 16 5.35197 16C5.76317 16 6.09652 15.7015 6.09652 15.3333V13.6667C6.09652 13.2985 5.76317 13 5.35197 13Z" fill="black"/>
<path d="M12.7973 13C12.3861 13 12.0527 13.2985 12.0527 13.6667V15.3333C12.0527 15.7015 12.3861 16 12.7973 16C13.2085 16 13.5418 15.7015 13.5418 15.3333V13.6667C13.5418 13.2985 13.2085 13 12.7973 13Z" fill="black"/>
<path d="M15.4032 5.33333H17.2646C17.6758 5.33333 18.0092 5.03486 18.0092 4.66667C18.0092 4.29848 17.6758 4 17.2646 4H15.4032C14.992 4 14.6587 4.29848 14.6587 4.66667C14.6587 5.03486 14.992 5.33333 15.4032 5.33333Z" fill="black"/>
<path d="M17.2646 10.6665H15.4032C14.992 10.6665 14.6587 10.965 14.6587 11.3332C14.6587 11.7014 14.992 11.9998 15.4032 11.9998H17.2646C17.6758 11.9998 18.0092 11.7014 18.0092 11.3332C18.0092 10.965 17.6758 10.6665 17.2646 10.6665Z" fill="black"/>
<path fill-rule="evenodd" clip-rule="evenodd" d="M12.7975 4C13.2087 4 13.542 4.29848 13.542 4.66667V11.3333C13.542 11.7015 13.2087 12 12.7975 12H5.35197C4.94077 12 4.60742 11.7015 4.60742 11.3333V4.66667C4.60742 4.29848 4.94077 4 5.35197 4H12.7975ZM11.6806 10.6668C11.8862 10.6668 12.0529 10.5176 12.0529 10.3335V5.66683C12.0529 5.48273 11.8862 5.3335 11.6806 5.3335H6.46876C6.26316 5.3335 6.09649 5.48273 6.09649 5.66683V10.3335C6.09649 10.5176 6.26316 10.6668 6.46876 10.6668H11.6806Z" fill="black"/>
</svg>
