<svg width="216" height="71" viewBox="0 0 216 71" fill="none" xmlns="http://www.w3.org/2000/svg">
<path d="M14.204 0H64.6493L61.3192 9.7417H10.6272L14.204 0Z" fill="#00ABFF"/>
<path d="M8.94892 15.0557H60.2212L56.8365 23.9118H5.31348L8.94892 15.0557Z" fill="#00ABFF"/>
<path d="M3.51817 30.1104H53.1365L49.861 39.852H0L3.51817 30.1104Z" fill="#00ABFF"/>
<path d="M212.571 15.0557H172.216V46.7057H192.613C196.792 46.7057 200.179 49.8395 200.179 53.7052C200.179 57.571 196.792 60.7048 192.613 60.7048H172.216V70.849H196.451C206.807 70.849 215.203 63.0827 215.203 53.5024C215.203 43.9221 206.807 36.1557 196.451 36.1557H185.595V25.4028H208.623L212.571 15.0557Z" fill="#233F81"/>
<path d="M99.7935 70.7476H75.2766V60.1976H96.0572C99.903 60.1976 103.021 57.3136 103.021 53.756C103.021 50.1984 99.903 47.3144 96.0572 47.3144H75.2766V41.0249H104.384C111.989 41.0249 118.154 46.7281 118.154 53.7632C118.154 63.1434 109.934 70.7476 99.7935 70.7476Z" fill="#233F81"/>
<path d="M115.96 30.4749V24.9487C115.96 19.4849 111.172 15.0557 105.266 15.0557H75.2766V25.7071H96.6603C99.5674 25.7071 101.924 27.8933 101.924 30.5825V31.9006C101.924 34.5898 99.5727 36.7644 96.6656 36.7644H75.2766V41.0249H104.556C110.854 41.0249 115.96 36.3015 115.96 30.4749Z" fill="#233F81"/>
<path d="M75.2766 25.6057H88.6551V60.299H75.2766V25.6057Z" fill="#233F81"/>
<path d="M168.707 15.0557H119.36V25.6442H136.357V70.849H149.626V25.6442H164.54L168.707 15.0557Z" fill="#233F81"/>
<path d="M172.216 15.0557H185.595V70.849H172.216V15.0557Z" fill="#233F81"/>
</svg>
